<svg id="Photo_icon" data-name="Photo icon" xmlns="http://www.w3.org/2000/svg" width="24" height="24" viewBox="0 0 24 24">
  <g id="camera">
    <rect id="Rectangle_3123" data-name="Rectangle 3123" width="24" height="24" fill="#617c94" opacity="0"/>
    <path id="Path_5324" data-name="Path 5324" d="M19,7H16V5.5A2.5,2.5,0,0,0,13.5,3h-3A2.5,2.5,0,0,0,8,5.5V7H5a3,3,0,0,0-3,3v8a3,3,0,0,0,3,3H19a3,3,0,0,0,3-3V10A3,3,0,0,0,19,7ZM10,5.5a.5.5,0,0,1,.5-.5h3a.5.5,0,0,1,.5.5V7H10ZM20,18a1,1,0,0,1-1,1H5a1,1,0,0,1-1-1V10A1,1,0,0,1,5,9H19a1,1,0,0,1,1,1Z" fill="#617c94"/>
    <path id="Path_5325" data-name="Path 5325" d="M12,10.5A3.5,3.5,0,1,0,15.5,14,3.5,3.5,0,0,0,12,10.5Zm0,5A1.5,1.5,0,1,1,13.5,14,1.5,1.5,0,0,1,12,15.5Z" fill="#617c94"/>
  </g>
</svg>
