<svg xmlns="http://www.w3.org/2000/svg" width="24" height="24" viewBox="0 0 24 24">
  <g id="task_time_icon" data-name="task time icon" transform="translate(114 -4178)">
    <rect id="Rectangle_3092" data-name="Rectangle 3092" width="24" height="24" transform="translate(-114 4178)" fill="#ff833e" opacity="0"/>
    <g id="Layer_2" data-name="Layer 2" transform="translate(-114 4178)">
      <g id="clock">
        <path id="Path_5311" data-name="Path 5311" d="M12,2A10,10,0,1,0,22,12,10,10,0,0,0,12,2Zm0,18a8,8,0,1,1,8-8A8,8,0,0,1,12,20Z" fill="#ff833e"/>
        <path id="Path_5312" data-name="Path 5312" d="M16,11H13V8a1,1,0,0,0-2,0v4a1,1,0,0,0,1,1h4a1,1,0,0,0,0-2Z" fill="#ff833e"/>
      </g>
    </g>
  </g>
</svg>
